<svg data-v-423bf9ae="" xmlns="http://www.w3.org/2000/svg" viewBox="0 0 420 100" class="iconLeftSlogan"><!----><!----><!----><g data-v-423bf9ae="" id="0e87077a-7b15-4fa7-b7d5-c5bc0f6f3c8e" fill="black" transform="matrix(6.437768451142813,0,0,6.437768451142813,108.84120027218958,-8.562232197089699)"><path d="M2.45 10.50L0.18 1.33L1.82 1.33L3.54 9.03L5.22 1.33L6.85 1.33L4.61 10.50L2.45 10.50ZM7.69 7.18Q7.69 5.49 8.44 4.61Q9.20 3.74 10.54 3.74Q11.89 3.74 12.62 4.53Q13.36 5.32 13.38 6.85L13.38 6.85L13.33 7.88L9.24 7.88Q9.37 9.39 10.75 9.39L10.75 9.39Q11.72 9.39 12.80 9.04L12.80 9.04L13.09 10.26Q12.64 10.42 11.93 10.54Q11.21 10.65 10.75 10.65L10.75 10.65Q7.69 10.65 7.69 7.18L7.69 7.18ZM10.60 5.04L10.60 5.04Q9.94 5.04 9.61 5.42Q9.28 5.81 9.24 6.71L9.24 6.71L11.83 6.71Q11.83 5.04 10.60 5.04ZM16.21 5.14L15.13 5.14L15.13 3.85L17.65 3.85L17.68 4.52Q18.13 4.27 18.85 4.04Q19.57 3.81 20.19 3.74L20.19 3.74L20.19 5.14Q19.64 5.19 18.89 5.43Q18.13 5.67 17.68 5.92L17.68 5.92L17.68 9.24L19.73 9.24L19.73 10.50L15.13 10.50L15.13 9.21L16.21 9.21L16.21 5.14ZM24.02 9.30L24.02 9.30Q24.42 9.30 24.89 9.11Q25.37 8.93 25.65 8.71L25.65 8.71L25.65 7.73Q24.81 7.66 24.28 7.66L24.28 7.66Q23.11 7.66 23.11 8.53L23.11 8.53Q23.11 9.30 24.02 9.30ZM23.80 10.65L23.80 10.65Q21.56 10.65 21.56 8.53L21.56 8.53Q21.56 7.39 22.28 6.94Q23.00 6.48 24.28 6.48L24.28 6.48Q24.88 6.48 25.65 6.55L25.65 6.55Q25.65 5.71 25.41 5.40Q25.17 5.10 24.58 5.10Q24.00 5.10 23.21 5.24Q22.43 5.38 22.01 5.52L22.01 5.52L21.74 4.19Q23.21 3.74 24.61 3.74Q26.01 3.74 26.55 4.35Q27.09 4.97 27.09 6.44L27.09 6.44L27.09 9.28L27.24 10.51L25.80 10.65L25.66 10.01Q24.49 10.65 23.80 10.65ZM30.21 5.14L29.13 5.14L29.13 3.85L31.65 3.85L31.68 4.52Q32.13 4.27 32.85 4.04Q33.57 3.81 34.19 3.74L34.19 3.74L34.19 5.14Q33.64 5.19 32.89 5.43Q32.13 5.67 31.68 5.92L31.68 5.92L31.68 9.24L33.73 9.24L33.73 10.50L29.13 10.50L29.13 9.21L30.21 9.21L30.21 5.14ZM36.96 7.95L36.96 5.14L35.90 5.14L35.90 3.85L36.96 3.85L36.96 2.25L38.40 2.11L38.40 3.85L40.89 3.85L40.89 5.14L38.40 5.14L38.40 7.95Q38.40 8.72 38.56 9.03L38.56 9.03Q38.72 9.34 39.28 9.34Q39.84 9.34 40.77 9.11L40.77 9.11L41.01 10.37Q39.94 10.65 39.19 10.65L39.19 10.65Q37.84 10.65 37.40 10.05Q36.96 9.45 36.96 7.95L36.96 7.95ZM45.02 9.30L45.02 9.30Q45.42 9.30 45.89 9.11Q46.37 8.93 46.65 8.71L46.65 8.71L46.65 7.73Q45.81 7.66 45.28 7.66L45.28 7.66Q44.11 7.66 44.11 8.53L44.11 8.53Q44.11 9.30 45.02 9.30ZM44.80 10.65L44.80 10.65Q42.56 10.65 42.56 8.53L42.56 8.53Q42.56 7.39 43.28 6.94Q44.00 6.48 45.28 6.48L45.28 6.48Q45.88 6.48 46.65 6.55L46.65 6.55Q46.65 5.71 46.41 5.40Q46.17 5.10 45.58 5.10Q45.00 5.10 44.21 5.24Q43.43 5.38 43.01 5.52L43.01 5.52L42.74 4.19Q44.21 3.74 45.61 3.74Q47.01 3.74 47.55 4.35Q48.09 4.97 48.09 6.44L48.09 6.44L48.09 9.28L48.24 10.51L46.80 10.65L46.66 10.01Q45.49 10.65 44.80 10.65Z"></path></g><!----><g data-v-423bf9ae="" id="7b8106e7-4195-4541-a1e3-364a59ff2dee" transform="matrix(2.8125,0,0,2.8125,0,0)" stroke="none" fill="black"><path d="M0 16.024L15.976 32 32 15.976 16.024 0 0 16.024zm15.989 7.323l-7.336-7.336 14.694-.022-7.358 7.358z"></path></g><!----><g data-v-423bf9ae="" id="fa7e9d37-3de5-4107-bd76-5e00f78deacd" fill="black" transform="matrix(1.5256369784336858,0,0,1.5256369784336858,108.84120027218958,68)"><path d="M8.82 2.21L7.34 2.21L2.18 7.04L2.18 2.21L1.13 2.21L1.13 11.48L2.18 11.48L2.18 8.44L4.10 6.65L7.73 11.48L9.04 11.48L4.87 5.94ZM23.93 3.22L23.93 2.21L17.11 2.21L17.11 11.48L23.93 11.48L23.93 10.47L18.16 10.47L18.16 7.35L23.31 7.35L23.31 6.33L18.16 6.33L18.16 3.22ZM39.44 3.22L39.44 2.21L32.62 2.21L32.62 11.48L39.44 11.48L39.44 10.47L33.67 10.47L33.67 7.35L38.82 7.35L38.82 6.33L33.67 6.33L33.67 3.22ZM49.18 8.18L52.30 8.18C54.28 8.18 55.50 7.03 55.50 5.19C55.50 3.37 54.28 2.21 52.30 2.21L48.13 2.21L48.13 11.48L49.18 11.48ZM52.23 3.21C53.69 3.21 54.45 3.96 54.45 5.19C54.45 6.44 53.69 7.20 52.23 7.20L49.18 7.20L49.18 3.21ZM74.96 2.21L73.91 2.21L73.91 11.48L74.96 11.48ZM90.80 2.21L83.29 2.21L83.29 3.22L86.52 3.22L86.52 11.48L87.57 11.48L87.57 3.22L90.80 3.22ZM110.17 7.92L113.39 7.92L115.63 11.48L116.87 11.48L114.44 7.74C115.47 7.50 116.68 6.90 116.68 5.11C116.68 3.35 115.46 2.21 113.55 2.21L109.12 2.21L109.12 11.48L110.17 11.48ZM110.17 3.21L113.43 3.21C114.74 3.21 115.63 3.93 115.63 5.11C115.63 6.55 114.37 6.93 113.37 6.93L110.17 6.93ZM132.30 3.22L132.30 2.21L125.48 2.21L125.48 11.48L132.30 11.48L132.30 10.47L126.53 10.47L126.53 7.35L131.68 7.35L131.68 6.33L126.53 6.33L126.53 3.22ZM145.15 2.21L143.84 2.21L139.90 11.48L141.06 11.48L142.20 8.79L146.79 8.79L147.92 11.48L149.09 11.48ZM142.60 7.83L144.49 3.30L146.38 7.83ZM157.26 2.21L157.26 11.48L163.37 11.48L163.37 10.47L158.31 10.47L158.31 2.21Z"></path></g></svg>